<mxfile host="app.diagrams.net" modified="2022-04-27T04:24:25.039Z" agent="5.0 (Windows NT 10.0; Win64; x64) AppleWebKit/537.36 (KHTML, like Gecko) Chrome/100.0.4896.127 Safari/537.36" etag="Cp2PU-729a4hHRgM0b0f" version="17.4.6" type="github">
  <diagram id="s9sTzC9SLg12Xh60lwWW" name="Page-1">
    <mxGraphModel dx="702" dy="743" grid="1" gridSize="10" guides="1" tooltips="1" connect="1" arrows="1" fold="1" page="1" pageScale="1" pageWidth="850" pageHeight="1100" math="0" shadow="0">
      <root>
        <mxCell id="0" />
        <mxCell id="1" parent="0" />
        <mxCell id="zA-Sa5RvYF2b9eXwcDll-7" value="" style="rounded=0;whiteSpace=wrap;html=1;" parent="1" vertex="1">
          <mxGeometry x="210" y="130" width="510" height="660" as="geometry" />
        </mxCell>
        <mxCell id="zA-Sa5RvYF2b9eXwcDll-8" value="Recommendation Management System" style="text;strokeColor=none;fillColor=none;html=1;fontSize=24;fontStyle=1;verticalAlign=middle;align=center;" parent="1" vertex="1">
          <mxGeometry x="216.25" y="130" width="497.5" height="50" as="geometry" />
        </mxCell>
        <mxCell id="zA-Sa5RvYF2b9eXwcDll-9" value="&lt;font style=&quot;font-size: 17px&quot;&gt;Login&lt;/font&gt;" style="ellipse;whiteSpace=wrap;html=1;" parent="1" vertex="1">
          <mxGeometry x="280" y="240" width="140" height="70" as="geometry" />
        </mxCell>
        <mxCell id="zA-Sa5RvYF2b9eXwcDll-10" style="edgeStyle=orthogonalEdgeStyle;rounded=0;orthogonalLoop=1;jettySize=auto;html=1;entryX=0;entryY=0.5;entryDx=0;entryDy=0;fontSize=14;" parent="1" source="zA-Sa5RvYF2b9eXwcDll-13" target="zA-Sa5RvYF2b9eXwcDll-9" edge="1">
          <mxGeometry relative="1" as="geometry" />
        </mxCell>
        <mxCell id="zA-Sa5RvYF2b9eXwcDll-11" style="edgeStyle=orthogonalEdgeStyle;rounded=0;orthogonalLoop=1;jettySize=auto;html=1;entryX=0;entryY=0.5;entryDx=0;entryDy=0;fontSize=14;" parent="1" source="zA-Sa5RvYF2b9eXwcDll-13" target="zA-Sa5RvYF2b9eXwcDll-14" edge="1">
          <mxGeometry relative="1" as="geometry" />
        </mxCell>
        <mxCell id="zA-Sa5RvYF2b9eXwcDll-13" value="User" style="shape=umlActor;html=1;verticalLabelPosition=bottom;verticalAlign=top;align=center;" parent="1" vertex="1">
          <mxGeometry x="80" y="410" width="30" height="60" as="geometry" />
        </mxCell>
        <mxCell id="zA-Sa5RvYF2b9eXwcDll-14" value="&lt;font style=&quot;font-size: 17px&quot;&gt;Recommendation Page&lt;/font&gt;" style="ellipse;whiteSpace=wrap;html=1;" parent="1" vertex="1">
          <mxGeometry x="280" y="570" width="160" height="80" as="geometry" />
        </mxCell>
        <mxCell id="zA-Sa5RvYF2b9eXwcDll-32" value="Genre Classification" style="ellipse;whiteSpace=wrap;html=1;fontSize=17;" parent="1" vertex="1">
          <mxGeometry x="485" y="240" width="140" height="70" as="geometry" />
        </mxCell>
        <mxCell id="zA-Sa5RvYF2b9eXwcDll-33" value="&amp;lt;&amp;lt;extend&amp;gt;&amp;gt;" style="edgeStyle=none;html=1;startArrow=open;endArrow=none;startSize=12;verticalAlign=bottom;dashed=1;labelBackgroundColor=none;rounded=0;fontSize=17;exitX=0.5;exitY=0;exitDx=0;exitDy=0;entryX=0;entryY=0.5;entryDx=0;entryDy=0;" parent="1" source="zA-Sa5RvYF2b9eXwcDll-14" target="zA-Sa5RvYF2b9eXwcDll-32" edge="1">
          <mxGeometry width="160" relative="1" as="geometry">
            <mxPoint x="430" y="230" as="sourcePoint" />
            <mxPoint x="590" y="230" as="targetPoint" />
          </mxGeometry>
        </mxCell>
        <mxCell id="zA-Sa5RvYF2b9eXwcDll-34" value="Search for currently listening song" style="ellipse;whiteSpace=wrap;html=1;fontSize=17;" parent="1" vertex="1">
          <mxGeometry x="480" y="670" width="150" height="80" as="geometry" />
        </mxCell>
        <mxCell id="zA-Sa5RvYF2b9eXwcDll-35" value="&amp;lt;&amp;lt;extend&amp;gt;&amp;gt;" style="edgeStyle=none;html=1;startArrow=open;endArrow=none;startSize=12;verticalAlign=bottom;dashed=1;labelBackgroundColor=none;rounded=0;fontSize=17;entryX=0;entryY=0.5;entryDx=0;entryDy=0;exitX=1;exitY=1;exitDx=0;exitDy=0;" parent="1" source="zA-Sa5RvYF2b9eXwcDll-14" target="zA-Sa5RvYF2b9eXwcDll-34" edge="1">
          <mxGeometry width="160" relative="1" as="geometry">
            <mxPoint x="410" y="410" as="sourcePoint" />
            <mxPoint x="570" y="410" as="targetPoint" />
          </mxGeometry>
        </mxCell>
        <mxCell id="zA-Sa5RvYF2b9eXwcDll-36" value="&lt;font style=&quot;font-size: 17px&quot;&gt;Return with song recommendation&lt;/font&gt;" style="ellipse;whiteSpace=wrap;html=1;" parent="1" vertex="1">
          <mxGeometry x="470" y="385" width="170" height="110" as="geometry" />
        </mxCell>
        <mxCell id="zA-Sa5RvYF2b9eXwcDll-37" value="&amp;lt;&amp;lt;include&amp;gt;&amp;gt;" style="edgeStyle=none;html=1;endArrow=open;verticalAlign=bottom;dashed=1;labelBackgroundColor=none;rounded=0;fontSize=17;exitX=0.5;exitY=1;exitDx=0;exitDy=0;" parent="1" source="zA-Sa5RvYF2b9eXwcDll-32" target="zA-Sa5RvYF2b9eXwcDll-36" edge="1">
          <mxGeometry width="160" relative="1" as="geometry">
            <mxPoint x="590" y="310" as="sourcePoint" />
            <mxPoint x="750" y="310" as="targetPoint" />
          </mxGeometry>
        </mxCell>
      </root>
    </mxGraphModel>
  </diagram>
</mxfile>
